<mxfile host="app.diagrams.net" agent="Mozilla/5.0 (Windows NT 10.0; Win64; x64; rv:136.0) Gecko/20100101 Firefox/136.0" version="26.2.5">
  <diagram name="Страница — 1" id="wfmxwdZDZH6p76glLAUG">
    <mxGraphModel dx="2068" dy="827" grid="1" gridSize="10" guides="1" tooltips="1" connect="1" arrows="1" fold="1" page="1" pageScale="1" pageWidth="827" pageHeight="1169" math="0" shadow="0">
      <root>
        <mxCell id="0" />
        <mxCell id="1" parent="0" />
        <mxCell id="fV63Kg8O7huzQeIpIAM--18" value="" style="rounded=0;whiteSpace=wrap;html=1;fillColor=#f8cecc;strokeColor=#b85450;" vertex="1" parent="1">
          <mxGeometry x="325" y="190" width="170" height="320" as="geometry" />
        </mxCell>
        <mxCell id="B_GiQvqA-0R-CYAGfRlB-5" value="&lt;div&gt;Не может получить поддержку своевременно&lt;/div&gt;" style="text;html=1;align=center;verticalAlign=middle;whiteSpace=wrap;rounded=0;" parent="1" vertex="1">
          <mxGeometry x="250" y="220" width="60" height="30" as="geometry" />
        </mxCell>
        <mxCell id="B_GiQvqA-0R-CYAGfRlB-6" value="Не может оказать постоянную поддержку в любой момент времени" style="text;html=1;align=center;verticalAlign=middle;whiteSpace=wrap;rounded=0;" parent="1" vertex="1">
          <mxGeometry x="500" y="240" width="150" height="30" as="geometry" />
        </mxCell>
        <mxCell id="B_GiQvqA-0R-CYAGfRlB-8" value="Может быть загружен большим потоком нуждающихся" style="text;html=1;align=center;verticalAlign=middle;whiteSpace=wrap;rounded=0;" parent="1" vertex="1">
          <mxGeometry x="530" y="360" width="150" height="30" as="geometry" />
        </mxCell>
        <mxCell id="B_GiQvqA-0R-CYAGfRlB-16" value="&lt;div&gt;Страх мешает получить помощь&lt;/div&gt;" style="text;html=1;align=center;verticalAlign=middle;whiteSpace=wrap;rounded=0;" parent="1" vertex="1">
          <mxGeometry x="100" y="510" width="100" height="30" as="geometry" />
        </mxCell>
        <mxCell id="B_GiQvqA-0R-CYAGfRlB-18" value="Страх останавливает от звонка на него" style="text;html=1;align=center;verticalAlign=middle;whiteSpace=wrap;rounded=0;" parent="1" vertex="1">
          <mxGeometry x="220" y="430" width="100" height="30" as="geometry" />
        </mxCell>
        <mxCell id="B_GiQvqA-0R-CYAGfRlB-19" value="Лимиты людских ресурсов не могут покрыть все запросы" style="text;html=1;align=center;verticalAlign=middle;whiteSpace=wrap;rounded=0;" parent="1" vertex="1">
          <mxGeometry x="500" y="180" width="150" height="30" as="geometry" />
        </mxCell>
        <mxCell id="fV63Kg8O7huzQeIpIAM--1" value="&#xa;Люди с социальной тревогой&#xa;&#xa;" style="shape=umlActor;verticalLabelPosition=bottom;verticalAlign=top;html=1;outlineConnect=0;" vertex="1" parent="1">
          <mxGeometry x="135" y="390" width="30" height="60" as="geometry" />
        </mxCell>
        <mxCell id="fV63Kg8O7huzQeIpIAM--12" style="edgeStyle=orthogonalEdgeStyle;rounded=0;orthogonalLoop=1;jettySize=auto;html=1;" edge="1" parent="1" source="fV63Kg8O7huzQeIpIAM--3">
          <mxGeometry relative="1" as="geometry">
            <mxPoint x="350" y="280" as="targetPoint" />
          </mxGeometry>
        </mxCell>
        <mxCell id="fV63Kg8O7huzQeIpIAM--3" value="&lt;div&gt;Люди, которым&amp;nbsp;&lt;/div&gt;&lt;div&gt;нужна моральная или психологическая&amp;nbsp;&amp;nbsp;&lt;/div&gt;&lt;div&gt;поддержка&lt;/div&gt;" style="shape=umlActor;verticalLabelPosition=bottom;verticalAlign=top;html=1;outlineConnect=0;" vertex="1" parent="1">
          <mxGeometry x="135" y="250" width="30" height="60" as="geometry" />
        </mxCell>
        <mxCell id="fV63Kg8O7huzQeIpIAM--15" style="edgeStyle=orthogonalEdgeStyle;rounded=0;orthogonalLoop=1;jettySize=auto;html=1;entryX=1;entryY=0.5;entryDx=0;entryDy=0;" edge="1" parent="1" source="fV63Kg8O7huzQeIpIAM--4" target="fV63Kg8O7huzQeIpIAM--10">
          <mxGeometry relative="1" as="geometry" />
        </mxCell>
        <mxCell id="fV63Kg8O7huzQeIpIAM--4" value="Профессиональные психологи" style="shape=umlActor;verticalLabelPosition=bottom;verticalAlign=top;html=1;outlineConnect=0;" vertex="1" parent="1">
          <mxGeometry x="700" y="250" width="30" height="60" as="geometry" />
        </mxCell>
        <mxCell id="fV63Kg8O7huzQeIpIAM--9" value="Экстренные номера" style="ellipse;whiteSpace=wrap;html=1;" vertex="1" parent="1">
          <mxGeometry x="350" y="360" width="120" height="80" as="geometry" />
        </mxCell>
        <mxCell id="fV63Kg8O7huzQeIpIAM--10" value="Службы психологической помощи" style="ellipse;whiteSpace=wrap;html=1;" vertex="1" parent="1">
          <mxGeometry x="354" y="240" width="120" height="80" as="geometry" />
        </mxCell>
        <mxCell id="fV63Kg8O7huzQeIpIAM--13" value="" style="endArrow=classic;html=1;rounded=0;entryX=0;entryY=0.5;entryDx=0;entryDy=0;" edge="1" parent="1" target="fV63Kg8O7huzQeIpIAM--9">
          <mxGeometry width="50" height="50" relative="1" as="geometry">
            <mxPoint x="180" y="280" as="sourcePoint" />
            <mxPoint x="180" y="280" as="targetPoint" />
          </mxGeometry>
        </mxCell>
        <mxCell id="fV63Kg8O7huzQeIpIAM--16" value="" style="endArrow=classic;html=1;rounded=0;entryX=1;entryY=0.5;entryDx=0;entryDy=0;" edge="1" parent="1" target="fV63Kg8O7huzQeIpIAM--9">
          <mxGeometry width="50" height="50" relative="1" as="geometry">
            <mxPoint x="660" y="280" as="sourcePoint" />
            <mxPoint x="440" y="380" as="targetPoint" />
          </mxGeometry>
        </mxCell>
        <mxCell id="fV63Kg8O7huzQeIpIAM--17" value="" style="endArrow=none;dashed=1;html=1;rounded=0;" edge="1" parent="1" source="fV63Kg8O7huzQeIpIAM--1">
          <mxGeometry width="50" height="50" relative="1" as="geometry">
            <mxPoint x="390" y="430" as="sourcePoint" />
            <mxPoint x="350" y="400" as="targetPoint" />
          </mxGeometry>
        </mxCell>
      </root>
    </mxGraphModel>
  </diagram>
</mxfile>
